<?xml version="1.0" encoding="UTF-8" standalone="no"?>
<!DOCTYPE svg PUBLIC "-//W3C//DTD SVG 1.1//EN" "http://www.w3.org/Graphics/SVG/1.1/DTD/svg11.dtd">
<svg xmlns="http://www.w3.org/2000/svg" xmlns:xlink="http://www.w3.org/1999/xlink" version="1.1" width="374.173pt" height="374.173pt" viewBox="0 0 374.173 374.173">
<g enable-background="new">
<path transform="matrix(1,0,0,-1,187.086,187.086)" d="M 184.25424 0 C 184.25424 101.76212 101.76212 184.25424 0 184.25424 C -101.76212 184.25424 -184.25424 101.76212 -184.25424 0 C -184.25424 -101.76212 -101.76212 -184.25424 0 -184.25424 C 101.76212 -184.25424 184.25424 -101.76212 184.25424 0 Z M 0 0 " fill="#f1d302"/>
<path transform="matrix(1,0,0,-1,187.086,187.086)" stroke-width="5.66934" stroke-linecap="butt" stroke-miterlimit="10" stroke-linejoin="miter" fill="none" stroke="#161925" d="M 184.25424 0 C 184.25424 101.76212 101.76212 184.25424 0 184.25424 C -101.76212 184.25424 -184.25424 101.76212 -184.25424 0 C -184.25424 -101.76212 -101.76212 -184.25424 0 -184.25424 C 101.76212 -184.25424 184.25424 -101.76212 184.25424 0 Z M 0 0 "/>
<symbol id="font_0_1">
<path d="M .651 .545 C .665 .557 .665 .563 .665 .567 C .665 .586 .647 .587 .64500007 .587 C .638 .587 .63500007 .585 .61700007 .569 L .54 .502 C .51900008 .524 .44500006 .587 .33300004 .587 C .17300001 .587 .039000006 .46000005 .039000006 .29400004 C .039000006 .20000002 .078 .14500001 .09800001 .116000007 C .08200001 .101 .08100001 .1 .022 .049000004 C .0020000004 .031000002 0 .029000001 0 .020000002 C 0 .008 .008000001 0 .020000004 0 C .027000003 0 .029 0 .047000007 .017 L .125 .085 C .134 .075 .208 0 .33200003 0 C .50200006 0 .62600007 .13800001 .62600007 .293 C .62600007 .386 .586 .44400005 .56700006 .47100003 C .568 .47200004 .57400009 .47700004 .578 .48100005 L .651 .545 M .12800002 .142 C .079 .21100001 .079 .27100004 .079 .293 C .079 .43700005 .194 .547 .33200003 .547 C .43900005 .547 .499 .48600004 .509 .47500003 L .12800002 .142 M .536 .44500003 C .569 .40100003 .586 .351 .586 .29400004 C .586 .15 .47100003 .040000004 .33300004 .040000004 C .22600001 .040000004 .16600001 .101 .15600002 .112 L .536 .44500003 Z "/>
</symbol>
<use xlink:href="#font_0_1" transform="matrix(39.8504,0,0,-39.8504,102.06863,75.05273)" fill="#c1292e"/>
<use xlink:href="#font_0_1" transform="matrix(39.8504,0,0,-39.8504,102.95663,73.724727)" fill="#c1292e"/>
<use xlink:href="#font_0_1" transform="matrix(39.8504,0,0,-39.8504,103.84063,75.05273)" fill="#c1292e"/>
<symbol id="font_1_1">
<path d="M .23200003 .19000001 L .34600003 .106000009 C .36900003 .087 .37100003 .087 .38300003 .087 C .40800003 .087 .426 .112 .426 .13300002 C .426 .14600002 .42000003 .16000001 .40600003 .16700001 C .39800004 .172 .386 .17400001 .256 .222 C .38500003 .27 .39800004 .272 .40600003 .277 C .42000003 .28300003 .426 .29700003 .426 .31100003 C .426 .33200003 .40800003 .35700003 .38300003 .35700003 C .372 .35700003 .37000004 .35700003 .34800003 .34000004 L .23200003 .254 C .236 .28000004 .256 .39600004 .256 .40600003 C .256 .432 .231 .44400005 .213 .44400005 C .19500003 .44400005 .17000002 .432 .17000002 .40600003 C .17000002 .39600004 .19100002 .275 .194 .254 L .08000001 .33800004 C .05700001 .35700003 .055000009 .35700003 .043000007 .35700003 C .018000007 .35700003 0 .33200003 0 .31100003 C 0 .298 .0060000049 .284 .020000004 .277 C .028000005 .272 .040000008 .27 .17000002 .222 C .041 .17400001 .028000005 .172 .020000004 .16700001 C .0060000049 .16100002 0 .14700002 0 .13300002 C 0 .112 .018000007 .087 .043000007 .087 C .054000006 .087 .05600001 .087 .07800001 .104 L .194 .19000001 C .18900001 .16100002 .17000002 .048000006 .17000002 .038 C .17000002 .012000002 .19500003 0 .213 0 C .231 0 .256 .012000002 .256 .038 C .256 .048000006 .23500002 .172 .23200003 .19000001 Z "/>
</symbol>
<use xlink:href="#font_1_1" transform="matrix(39.8504,0,0,-39.8504,107.71193,318.1202)" fill="#c1292e"/>
<symbol id="font_2_2">
<path d="M 0 .68600007 L 0 .63900008 L .107999999 .63900008 L .107999999 .047000003 L 0 .047000003 L 0 0 L .43500004 0 C .5360001 0 .6610001 .013 .70500007 .131 C .71000006 .146 .71300008 .162 .71400007 .178 L .71400007 .18800001 C .71400007 .30100004 .59000006 .35800005 .50900009 .35800005 C .57400009 .37800003 .64000007 .39000006 .67200008 .46400006 C .6790001 .48000006 .68200007 .49700005 .68200007 .51400008 C .68200007 .58400008 .63100007 .63900008 .56700006 .66300007 C .51400008 .6840001 .45700003 .68600007 .40100003 .68600007 L 0 .68600007 M .23900002 .047000003 L .23900002 .33900003 L .425 .33900003 C .44900004 .33900003 .47300003 .33800004 .49400006 .32700003 C .54300007 .30400003 .56400009 .25000004 .56600007 .19800002 L .56600007 .19000001 C .56600007 .143 .5500001 .094000007 .507 .068 C .47300003 .048000006 .43600003 .047000003 .39900003 .047000003 L .23900002 .047000003 M .23900002 .37500004 L .23900002 .63900008 L .40800003 .63900008 C .43400003 .63900008 .458 .6380001 .48200003 .62600007 C .5220001 .60400006 .5400001 .558 .5400001 .51400008 C .5400001 .44200004 .493 .38200004 .409 .37500004 L .23900002 .37500004 Z "/>
</symbol>
<symbol id="font_2_4">
<path d="M 0 .68600007 L 0 .63900008 L .114 .63900008 L .114 .047000003 L 0 .047000003 L 0 0 L .37000004 0 L .37000004 .047000003 L .256 .047000003 L .256 .63900008 L .37000004 .63900008 L .37000004 .68600007 L 0 .68600007 Z "/>
</symbol>
<symbol id="font_2_3">
<path d="M 0 .68000009 L 0 .633 L .107999999 .633 L .107999999 .047000003 L 0 .047000003 L 0 0 L .38500003 0 L .38500003 .047000003 L .25 .047000003 L .25 .31700004 L .29500003 .31700004 C .356 .31700004 .404 .31200005 .404 .2 L .451 .2 L .451 .48100005 L .404 .48100005 L .404 .47000004 C .404 .37200005 .35300002 .36400003 .29500003 .36400003 L .25 .36400003 L .25 .633 L .367 .633 C .43800003 .633 .5130001 .633 .55700007 .559 C .5770001 .522 .5820001 .48000006 .58800008 .43900005 L .63500007 .43900005 L .60400006 .68000009 L 0 .68000009 Z "/>
</symbol>
<symbol id="font_2_6">
<path d="M 0 .697 L 0 .65000006 L .107999999 .65000006 L .107999999 .058000003 L 0 .058000003 L 0 .011000001 L .35200004 .011000001 L .35200004 .058000003 L .24400002 .058000003 L .24400002 .336 L .35300002 .336 C .428 .336 .48200003 .298 .48200003 .20500002 L .48200003 .125 C .49100004 .026 .5910001 0 .7060001 0 L .7200001 0 C .7710001 .0050000005 .81900009 .052000006 .81900009 .105000007 C .81900009 .120000008 .81200006 .128 .79700008 .128 C .77900007 .128 .77400007 .123 .7710001 .099 C .76800009 .067 .74200007 .036000004 .70800009 .036000004 C .632 .036000004 .632 .15900001 .62700006 .20300001 C .62100008 .263 .59900006 .304 .55200007 .331 C .53900006 .33900003 .52500006 .344 .51100006 .351 C .58500006 .37100003 .6600001 .407 .67700007 .49400003 C .67800006 .499 .67800006 .50500008 .67800006 .51 C .67800006 .582 .62700006 .634 .5630001 .66300007 C .492 .69500008 .414 .697 .337 .697 L 0 .697 M .24400002 .372 L .24400002 .65000006 C .271 .65000006 .29700003 .651 .324 .651 L .337 .651 C .393 .651 .47200004 .64900007 .50500008 .602 C .52300009 .577 .52500006 .54300007 .52500006 .513 C .52500006 .448 .51100006 .381 .38200004 .373 C .36200003 .372 .34300003 .37100003 .323 .37100003 C .29700003 .37100003 .27 .372 .24400002 .372 Z "/>
</symbol>
<symbol id="font_2_1">
<path d="M 0 .047000003 L 0 0 L .24900002 0 L .24900002 .047000003 C .21900001 .047000003 .16100002 .047000003 .16100002 .061000006 C .16100002 .076000008 .18800003 .12900001 .201 .161 L .20899999 .18100001 C .213 .187 .21200001 .193 .224 .193 L .47100003 .193 C .49200005 .193 .512 .118 .526 .084 C .531 .072000008 .537 .060000007 .541 .047000003 L .44700004 .047000003 L .44700004 0 L .786 0 L .786 .047000003 L .70000007 .047000003 C .69 .047000003 .688 .052000006 .684 .059000005 L .675 .083000008 C .596 .26600004 .521 .45300005 .44700004 .6380001 C .43600003 .66300007 .43300004 .6980001 .395 .6980001 L .388 .6980001 C .358 .6980001 .35500003 .674 .34600003 .65500006 C .272 .46800003 .19 .28400005 .117000009 .096 C .10400001 .07 .109000008 .054000006 .07000001 .050000006 C .047000007 .047000003 .023000002 .047000003 0 .047000003 M .234 .24000001 L .34800003 .51800009 L .462 .24000001 L .234 .24000001 Z "/>
</symbol>
<symbol id="font_2_5">
<path d="M 0 .68600007 L 0 .63900008 L .107999999 .63900008 L .107999999 .066 C .107999999 .049000004 .068 .047000003 .033000005 .047000003 L 0 .047000003 L 0 0 L .26900003 0 L .26900003 .047000003 C .256 .047000003 .241 .046000005 .227 .046000005 C .193 .046000005 .161 .049000004 .161 .07 L .161 .59800007 C .21000001 .54600009 .255 .48800005 .301 .43300004 C .421 .29200004 .53800007 .148 .6610001 .010000001 C .669 .001 .67700007 0 .68900009 0 C .7060001 0 .71400007 .009000001 .71400007 .026 C .71400007 .033000005 .71300008 .040000004 .71300008 .045000007 L .71300008 .61700007 C .71300008 .637 .75100007 .63900008 .7860001 .63900008 L .82100006 .63900008 L .82100006 .68600007 L .55200007 .68600007 L .55200007 .63900008 C .56500008 .63900008 .57900008 .64000007 .59400007 .64000007 C .6280001 .64000007 .6600001 .637 .6600001 .61700007 L .6600001 .20600002 L .266 .67 L .25 .6840001 L .225 .68600007 L 0 .68600007 Z "/>
</symbol>
<symbol id="font_2_7">
<path d="M .021000002 .6750001 L 0 .43400005 L .047000007 .43400005 C .051000008 .48400004 .055 .55100008 .08900001 .58800008 C .125 .628 .183 .628 .23300001 .628 L .28800003 .628 L .28800003 .047000003 L .13500002 .047000003 L .13500002 0 L .583 0 L .583 .047000003 L .43 .047000003 L .43 .628 L .48400004 .628 C .55 .628 .63100007 .62500008 .65400007 .53700008 C .66400006 .504 .667 .46800003 .67 .43400005 L .717 .43400005 L .69600006 .6750001 L .021000002 .6750001 Z "/>
</symbol>
<use xlink:href="#font_2_2" transform="matrix(39.8504,0,0,-39.8504,79.98816,200.79718)" fill="#c1292e"/>
<use xlink:href="#font_2_4" transform="matrix(39.8504,0,0,-39.8504,112.34668,200.79718)" fill="#c1292e"/>
<use xlink:href="#font_2_3" transform="matrix(39.8504,0,0,-39.8504,129.96057,200.79718)" fill="#c1292e"/>
<use xlink:href="#font_2_4" transform="matrix(39.8504,0,0,-39.8504,158.5333,200.79718)" fill="#c1292e"/>
<use xlink:href="#font_2_2" transform="matrix(39.8504,0,0,-39.8504,176.14719,200.79718)" fill="#c1292e"/>
<use xlink:href="#font_2_6" transform="matrix(39.8504,0,0,-39.8504,208.74481,201.23554)" fill="#c1292e"/>
<use xlink:href="#font_2_1" transform="matrix(39.8504,0,0,-39.8504,243.17555,200.79718)" fill="#c1292e"/>
<use xlink:href="#font_2_5" transform="matrix(39.8504,0,0,-39.8504,277.72587,200.79718)" fill="#c1292e"/>
<use xlink:href="#font_2_7" transform="matrix(39.8504,0,0,-39.8504,313.67094,200.79718)" fill="#c1292e"/>
<path transform="matrix(1,0,0,-1,187.086,187.086)" stroke-width="5.66934" stroke-linecap="butt" stroke-miterlimit="10" stroke-linejoin="miter" fill="none" stroke="#c1292e" d="M -101.32619 97.18495 C -160.8553 47.23004 -155.92926 -51.36377 -99.28767 -98.89247 "/>
<path transform="matrix(.76949,.64569,.64569,-.76949,87.79833,285.97846)" stroke-width="4.53549" stroke-linecap="round" stroke-linejoin="round" fill="none" stroke="#c1292e" d="M -5.9393 7.91907 C -5.44435 4.9494 0 .49492 1.48482 0 C 0 -.49492 -5.44435 -4.9494 -5.9393 -7.91907 "/>
<path transform="matrix(1,0,0,-1,187.086,187.086)" stroke-width="5.66934" stroke-linecap="butt" stroke-miterlimit="10" stroke-linejoin="miter" fill="none" stroke="#c1292e" d="M -32.33412 136.76366 C 35.65941 161.51439 129.03382 108.69272 138.44179 32.07263 "/>
<path transform="matrix(-.94089,.34251,.34251,.94089,154.75188,50.322328)" stroke-width="5.66934" stroke-linecap="round" stroke-miterlimit="10" stroke-linejoin="miter" fill="none" stroke="#c1292e" d="M 0 0 L 1.14925 0 C 3.70058 0 5.74628 2.55133 5.74628 4.59703 C 5.74628 7.14836 3.70058 9.19406 1.14925 9.19406 "/>
<path transform="matrix(.12189,.99287,.99287,-.12189,325.52778,155.01337)" stroke-width="4.53549" stroke-linecap="round" stroke-linejoin="round" fill="none" stroke="#c1292e" d="M -5.9393 7.91907 C -5.44435 4.9494 0 .49492 1.48482 0 C 0 -.49492 -5.44435 -4.9494 -5.9393 -7.91907 "/>
<path transform="matrix(1,0,0,-1,187.086,187.086)" stroke-width="5.66934" stroke-linecap="butt" stroke-miterlimit="10" stroke-linejoin="miter" fill="none" stroke="#c1292e" d="M 138.89917 -28.3468 C 128.85329 -110.163 32.12535 -160.22812 -41.80315 -133.32 "/>
<path transform="matrix(-.94089,-.34245,-.34245,.94089,156.53548,324.50163)" stroke-width="4.53549" stroke-linecap="round" stroke-linejoin="round" fill="none" stroke="#c1292e" d="M -5.9393 7.91907 C -5.44435 4.9494 0 .49492 1.48482 0 C 0 -.49492 -5.44435 -4.9494 -5.9393 -7.91907 "/>
<path transform="matrix(-.94089,-.34245,-.34245,.94089,145.28285,320.406)" stroke-width="4.53549" stroke-linecap="round" stroke-linejoin="round" fill="none" stroke="#c1292e" d="M -5.9393 7.91907 C -5.44435 4.9494 0 .49492 1.48482 0 C 0 -.49492 -5.44435 -4.9494 -5.9393 -7.91907 "/>
</g>
</svg>
